HIERARCHY
ROOT Hips
{
 OFFSET 0.000000 0.000000 0.000000
 CHANNELS 6 Xposition Yposition Zposition Yrotation Xrotation Zrotation
 JOINT Chest
 {
  OFFSET 0.000000 10.383400 0.001500
  CHANNELS 3 Yrotation Xrotation Zrotation
  JOINT Chest2
  {
   OFFSET 0.000000 10.418200 -0.003100
   CHANNELS 3 Yrotation Xrotation Zrotation
   JOINT Chest3
   {
    OFFSET 0.000000 10.375100 0.000000
    CHANNELS 3 Yrotation Xrotation Zrotation
    JOINT Chest4
    {
     OFFSET 0.000000 10.364600 0.000000
     CHANNELS 3 Yrotation Xrotation Zrotation
     JOINT Neck
     {
      OFFSET 0.000000 15.642200 0.000000
      CHANNELS 3 Yrotation Xrotation Zrotation
      JOINT Head
      {
       OFFSET 0.000000 9.697300 -0.006500
       CHANNELS 3 Yrotation Xrotation Zrotation
       End Site
       {
        OFFSET 0.000000 18.492200 -0.003400
       }
      }
     }
     JOINT RightCollar
     {
      OFFSET -3.166800 10.349300 0.000000
      CHANNELS 3 Yrotation Xrotation Zrotation
      JOINT RightShoulder
      {
       OFFSET -14.729700 0.000000 0.000000
       CHANNELS 3 Yrotation Xrotation Zrotation
       JOINT RightElbow
       {
        OFFSET 0.000000 -32.224300 0.000000
        CHANNELS 3 Yrotation Xrotation Zrotation
        JOINT RightWrist
        {
         OFFSET 0.000000 -26.084100 0.000000
         CHANNELS 3 Yrotation Xrotation Zrotation
         End Site
         {
          OFFSET 0.000000 -19.319400 0.000000
         }
        }
       }
      }
     }
     JOINT LeftCollar
     {
      OFFSET 3.166800 10.349300 0.000000
      CHANNELS 3 Yrotation Xrotation Zrotation
      JOINT LeftShoulder
      {
       OFFSET 14.729700 0.000000 0.000000
       CHANNELS 3 Yrotation Xrotation Zrotation
       JOINT LeftElbow
       {
        OFFSET 0.000000 -32.224300 0.000000
        CHANNELS 3 Yrotation Xrotation Zrotation
        JOINT LeftWrist
        {
         OFFSET 0.000000 -26.084100 0.000000
         CHANNELS 3 Yrotation Xrotation Zrotation
         End Site
         {
          OFFSET 0.000000 -19.319400 0.000000
         }
        }
       }
      }
     }
    }
   }
  }
 }
 JOINT RightHip
 {
  OFFSET -8.428900 -0.007500 -0.000800
  CHANNELS 3 Yrotation Xrotation Zrotation
  JOINT RightKnee
  {
   OFFSET 0.000000 -43.834600 0.000700
   CHANNELS 3 Yrotation Xrotation Zrotation
   JOINT RightAnkle
   {
    OFFSET 0.000000 -42.757000 0.001200
    CHANNELS 3 Yrotation Xrotation Zrotation
    JOINT RightToe
    {
     OFFSET 0.000000 -6.946900 15.649300
     CHANNELS 3 Yrotation Xrotation Zrotation
     End Site
     {
      OFFSET 0.000000 -1.580800 6.825800
     }
    }
   }
  }
 }
 JOINT LeftHip
 {
  OFFSET 8.428900 -0.007500 -0.000800
  CHANNELS 3 Yrotation Xrotation Zrotation
  JOINT LeftKnee
  {
   OFFSET 0.000000 -43.834600 0.000700
   CHANNELS 3 Yrotation Xrotation Zrotation
   JOINT LeftAnkle
   {
    OFFSET 0.000000 -42.757000 0.001200
    CHANNELS 3 Yrotation Xrotation Zrotation
    JOINT LeftToe
    {
     OFFSET 0.000000 -6.946900 15.649300
     CHANNELS 3 Yrotation Xrotation Zrotation
     End Site
     {
      OFFSET 0.000000 -1.580800 6.825800
     }
    }
   }
  }
 }
}
MOTION
Frames: 11
Frame Time: 0.008333
-2.249573 126.252788 -0.967266 169.037936 -17.020771 -2.906801 0.122227 17.472383 2.282985 -0.026091 1.893335 0.243425 -0.022593 3.146145 0.403205 0.070235 15.330278 1.990957 -0.323840 10.650330 0.198329 -0.332552 -14.416332 0.274419 1.705622 1.141725 -3.462898 5.341410 -4.246469 -7.044405 -165.647624 -65.889987 -171.556852 0.047895 -16.611303 -39.152451 -6.185843 1.011861 1.643125 10.112229 -8.376104 6.601172 90.041761 -49.866623 -128.331258 4.811513 -2.263463 -8.672323 3.607396 -52.874824 9.762806 -60.725576 83.564051 -56.977814 3.017409 -16.187408 4.390482 0.000533 -0.005961 0.000236 2.484888 -50.693143 -2.833351 98.663462 78.802917 106.780204 11.336626 -20.768428 -11.110301 -0.001695 0.004603 -0.000752
-2.250447 126.255182 -0.965038 169.034045 -17.047001 -2.896911 0.137384 17.493720 2.276327 -0.018925 1.898278 0.242658 -0.027090 3.154454 0.403054 0.065857 15.332415 1.991010 -0.189664 10.713620 0.208899 -0.261580 -14.388124 0.274061 1.606637 1.124464 -3.554839 5.096383 -3.978874 -7.000993 -165.176012 -64.648011 -171.703773 -0.113703 -16.464772 -38.829999 -6.016850 0.958104 1.794202 10.165321 -8.012748 6.491295 90.741467 -49.254910 -129.721312 4.880310 -1.914334 -8.870633 3.622861 -52.848451 9.751611 -60.727767 83.561790 -56.977889 3.002379 -16.189010 4.385908 -0.000647 -0.005915 -0.000287 2.497187 -50.666944 -2.840892 98.659869 78.807132 106.772826 11.335031 -20.771181 -11.108033 -0.003849 0.003333 -0.001709
-2.250138 126.258283 -0.965264 169.035992 -17.087366 -2.893209 0.152357 17.534099 2.275150 -0.017494 1.902634 0.242566 -0.024578 3.161471 0.402892 0.060901 15.333125 1.989851 -0.076215 10.769588 0.221879 -0.162521 -14.345787 0.270617 1.509899 1.115221 -3.643174 4.872191 -3.715641 -6.963905 -164.694532 -63.477651 -171.844929 -0.315040 -16.302717 -38.440114 -5.828093 0.909522 1.968919 10.137071 -7.671784 6.337840 91.303150 -48.692530 -130.919433 4.948430 -1.603958 -9.077665 3.624865 -52.803973 9.750849 -60.726994 83.556075 -56.974860 3.005656 -16.194928 4.370692 0.000981 -0.006972 0.000435 2.498998 -50.625875 -2.844463 98.635349 78.806103 106.750516 11.361597 -20.761730 -11.124871 0.003439 0.001824 0.001527
-2.250387 126.259773 -0.960709 169.036513 -17.099462 -2.891695 0.167079 17.546952 2.279067 -0.023374 1.904188 0.241218 -0.015314 3.170581 0.404558 0.076959 15.349428 1.982155 0.021980 10.799353 0.249498 -0.060112 -14.312622 0.265964 1.403028 1.105731 -3.721400 4.662108 -3.467745 -6.932836 -164.140035 -62.402085 -172.035648 -0.560332 -16.130937 -37.962888 -5.632650 0.852310 2.170662 10.024813 -7.356166 6.138775 91.719377 -48.177537 -131.915402 5.018644 -1.339758 -9.286168 3.624767 -52.788510 9.753425 -60.672911 83.551042 -56.921401 3.002708 -16.195356 4.364609 0.001755 -0.004552 0.000779 2.499080 -50.613143 -2.842657 98.626886 78.809380 106.742795 11.356109 -20.766443 -11.124264 0.002109 0.003965 0.000936
-2.250865 126.261062 -0.955943 169.038531 -17.110130 -2.890212 0.174869 17.558252 2.282172 -0.024859 1.905875 0.240201 -0.011611 3.176288 0.406060 0.104582 15.379183 1.985352 0.113799 10.802889 0.269866 0.044402 -14.294626 0.261597 1.302469 1.103450 -3.809647 4.465876 -3.237177 -6.907541 -163.463253 -61.438163 -172.314963 -0.831886 -15.968634 -37.411718 -5.431956 0.786914 2.367931 9.850228 -7.059139 5.894965 91.978239 -47.705618 -132.703706 5.094234 -1.113609 -9.482460 3.622049 -52.774952 9.756333 -60.631504 83.543928 -56.879011 3.001883 -16.193362 4.359082 0.004158 -0.002206 0.001846 2.499053 -50.603984 -2.838807 98.616112 78.814356 106.728732 11.344942 -20.767973 -11.115993 -0.000865 0.005825 -0.000384
-2.251456 126.262584 -0.952176 169.038087 -17.127616 -2.887092 0.178226 17.575916 2.280869 0.002583 1.915482 0.247146 -0.038608 3.168871 0.400178 0.112742 15.387983 1.986589 0.233923 10.819694 0.288285 0.147185 -14.293408 0.258918 1.241343 1.140100 -3.896292 4.291052 -3.017835 -6.895296 -162.641123 -60.598536 -172.699495 -1.108009 -15.850054 -36.822875 -5.220280 0.750689 2.553512 9.640150 -6.770762 5.602879 92.073453 -47.284451 -133.284957 5.181453 -0.927702 -9.649668 3.621580 -52.753979 9.761025 -60.584629 83.538720 -56.835300 2.995231 -16.194947 4.354522 0.003623 -0.000681 0.001608 2.498253 -50.585599 -2.829234 98.614478 78.826702 106.723008 11.342184 -20.770787 -11.114230 0.002577 0.008020 0.001144
-2.252565 126.264038 -0.948392 169.042104 -17.146594 -2.883598 0.190831 17.595094 2.283544 -0.004619 1.917472 0.247467 -0.028137 3.177763 0.400390 0.123254 15.402336 1.988054 0.342693 10.809686 0.314639 0.245187 -14.307818 0.259025 1.179229 1.169992 -3.971849 4.145747 -2.813662 -6.912401 -161.662459 -59.898046 -173.203721 -1.384672 -15.820416 -36.250186 -5.059785 0.704224 2.738261 9.402058 -6.483532 5.249316 92.039522 -46.941076 -133.686204 5.283084 -0.821923 -9.768397 3.619423 -52.730247 9.761531 -60.531439 83.535274 -56.785723 2.992125 -16.203027 4.347166 0.002789 -0.000166 0.001238 2.496438 -50.567193 -2.830886 98.588823 78.831271 106.698251 11.343831 -20.765497 -11.116521 0.004417 0.009278 0.001961
-2.254277 126.266675 -0.948614 169.042720 -17.191330 -2.873263 0.206534 17.639752 2.285277 -0.012057 1.919720 0.244136 0.007598 3.197168 0.411185 0.155101 15.433085 1.998633 0.407144 10.760595 0.338263 0.337005 -14.333891 0.264656 1.086905 1.181864 -4.049466 4.027219 -2.637122 -6.975084 -160.506279 -59.351841 -173.849755 -1.665640 -15.915048 -35.742258 -4.983389 0.637224 2.915684 9.112053 -6.196338 4.824298 91.960553 -46.698608 -133.954786 5.387456 -0.836826 -9.812895 3.629311 -52.682712 9.751732 -60.518764 83.534416 -56.774653 2.988080 -16.207190 4.344859 0.001664 -0.000531 0.000739 2.504542 -50.522376 -2.840070 98.562277 78.840718 106.669791 11.346761 -20.757959 -11.114113 0.002507 0.006802 0.001113
-2.256141 126.267789 -0.943268 169.041804 -17.209178 -2.869718 0.244526 17.651152 2.302024 -0.022332 1.928866 0.242345 0.020544 3.206647 0.414967 0.168114 15.449013 2.004083 0.496787 10.730015 0.368419 0.424457 -14.366068 0.274630 1.033341 1.226911 -4.118242 3.933324 -2.491812 -7.084373 -159.174201 -58.977161 -174.642584 -1.941834 -16.123768 -35.327399 -4.915886 0.605890 3.089674 8.739345 -5.917780 4.331650 91.916664 -46.564402 -134.118746 5.477176 -0.969268 -9.767837 3.631262 -52.663140 9.749655 -60.462980 83.538023 -56.719974 2.994879 -16.219249 4.322417 0.002673 -0.001325 0.001187 2.507813 -50.505548 -2.841916 98.544338 78.842665 106.652417 11.342343 -20.756612 -11.110376 0.002328 0.009612 0.001034
-2.258702 126.268959 -0.937697 169.045145 -17.230522 -2.866520 0.254221 17.668402 2.304510 -0.007086 1.931213 0.246136 0.008075 3.213120 0.413529 0.204147 15.479089 2.020619 0.584150 10.698131 0.395655 0.510249 -14.399324 0.283446 0.985415 1.229711 -4.157602 3.887883 -2.335124 -7.253101 -157.725486 -58.802329 -175.550279 -2.203088 -16.411984 -35.016622 -4.877029 0.577005 3.246345 8.288359 -5.666587 3.794383 91.930416 -46.543407 -134.179380 5.551198 -1.202692 -9.647379 3.630386 -52.642557 9.747849 -60.459370 83.547639 -56.719856 2.988800 -16.230671 4.315504 0.002807 -0.000741 0.001246 2.502297 -50.489297 -2.841598 98.544382 78.847067 106.650766 11.342440 -20.749851 -11.109593 0.003123 0.009780 0.001387
-2.261203 126.270649 -0.932843 169.049228 -17.262868 -2.865747 0.276815 17.696085 2.316480 0.013735 1.944847 0.255360 -0.022708 3.209281 0.404385 0.246433 15.527532 2.050199 0.656523 10.662699 0.416443 0.594572 -14.427292 0.287540 0.954265 1.257899 -4.247053 3.872963 -2.258337 -7.392097 -156.260071 -58.864122 -176.506749 -2.452225 -16.767158 -34.785303 -4.865553 0.532613 3.370422 7.806436 -5.471019 3.247940 91.959744 -46.634455 -134.120739 5.618598 -1.513666 -9.496009 3.629904 -52.615369 9.746350 -60.500111 83.552441 -56.759880 2.988710 -16.235192 4.308901 0.003074 -0.003861 0.001365 2.491908 -50.464819 -2.834823 98.572928 78.845178 106.675443 11.331834 -20.745998 -11.105951 0.002759 0.007820 0.001225
